# xmcd
#
# Track frame offsets:
#	150
#	15100
#	32451
#	63320
#	76487
#	92550
#	119038
#	136718
#	162864
#	179160
#	193255
#	207820
#
# Disc length: 3216 seconds
#
# Revision: 1
# Processed by: cddbd v1.5.1PL2 Copyright (c) Steve Scherf et al.
# Submitted via: audiograbber 1.82.02
#
DISCID=990c8e0c
DTITLE=Big Steve's Blues Attack - Hands Full Of Joy
DYEAR=1999
DGENRE=Blues
TTITLE0=I Know
TTITLE1=I Saw You Walking
TTITLE2=Back On Me
TTITLE3=Coffeine And Nicotine
TTITLE4=Up The Line
TTITLE5=Walking The Dog With A Dinosaur
TTITLE6=Mama's Boy
TTITLE7=Fourty Four
TTITLE8=The Color Of Your Underwear
TTITLE9=Check Yourself
TTITLE10=I Got A Feeling
TTITLE11=T-Bone Shuffle (Live)
EXTD=
EXTT0=
EXTT1=
EXTT2=
EXTT3=
EXTT4=
EXTT5=
EXTT6=
EXTT7=
EXTT8=
EXTT9=
EXTT10=
EXTT11=
PLAYORDER=
